<?xml version="1.0" encoding="utf-8"?>
<!-- Generator: Adobe Illustrator 17.0.0, SVG Export Plug-In . SVG Version: 6.00 Build 0)  -->
<!DOCTYPE svg PUBLIC "-//W3C//DTD SVG 1.1//EN" "http://www.w3.org/Graphics/SVG/1.1/DTD/svg11.dtd">
<svg version="1.1" id="图形" xmlns="http://www.w3.org/2000/svg" xmlns:xlink="http://www.w3.org/1999/xlink" x="0px" y="0px"
	 width="1024px" height="1024px" viewBox="0 0 1024 1024" enable-background="new 0 0 1024 1024" xml:space="preserve">
<path fill="#FFFFFF" d="M898.703,644.958l120.337-347.922c6.045-16.723,1.483-26.759-3.395-33.427
	c-12.485-16.976-38.098-17.129-43.122-17.129l-680.14-0.127l-18.149-83.188c-4.907-19.632-19.388-38.341-48.587-38.341H34.489
	c-19.794,0-30.571,8.953-30.571,26.86v48.008c0,17.292,10.732,21.809,31.268,21.809h161.389l123.5,506.519
	c-19.614,20.092-30.275,49.336-30.275,76.646c0,60.089,49.526,115.425,112.749,115.425c59.735,0,104.5-54.053,111.755-86.279
	h240.547c7.301,32.226,43.564,87.57,111.755,87.57c62.147,0,112.721-52.03,112.721-112.008c0-59.644-37.556-112.523-112.107-112.523
	c-30.961,0-67.767,16.108-84.869,40.274H486.783c-21.429-32.207-50.746-42.208-80.378-43.329l-4.03-21.112h449.73
	C885.992,672.685,892.66,660.768,898.703,644.958L898.703,644.958z M358.784,808.073c0-22.866,19.243-41.45,42.895-41.45
	c23.589,0,42.823,18.584,42.823,41.45c0,22.838-19.234,41.404-42.823,41.404C378.027,849.477,358.784,830.911,358.784,808.073
	C358.784,808.073,358.784,808.073,358.784,808.073z M867.481,848.971c-23.353,0-42.353-18.359-42.353-40.9
	c0-22.569,18.999-40.925,42.353-40.925c23.382,0,42.371,18.356,42.371,40.925C909.852,830.611,890.861,848.971,867.481,848.971
	L867.481,848.971z"/>
</svg>
