<?xml version="1.0" encoding="utf-8"?>
<!-- Generator: Adobe Illustrator 17.0.0, SVG Export Plug-In . SVG Version: 6.00 Build 0)  -->
<!DOCTYPE svg PUBLIC "-//W3C//DTD SVG 1.1//EN" "http://www.w3.org/Graphics/SVG/1.1/DTD/svg11.dtd">
<svg version="1.1" id="图形" xmlns="http://www.w3.org/2000/svg" xmlns:xlink="http://www.w3.org/1999/xlink" x="0px" y="0px"
	 width="1024px" height="1024px" viewBox="0 0 1024 1024" enable-background="new 0 0 1024 1024" xml:space="preserve">
<path fill="#FFFFFF" d="M61.021,374.044c0-18.052,3.078-30.928,8.886-38.728c5.924-7.692,18.965-11.451,39.416-11.451H235.09
	v501.577h-53.999c-14.466,0-28.651-0.109-42.717-0.453c-14.184-0.226-23.753-0.456-28.994-0.456
	c-17.713,0.687-30.189-2.335-37.419-9.113c-7.18-6.664-10.882-19.477-10.882-38.163l0-144.388c0-7.349,1.252-12.932,3.476-16.461
	c2.221-3.646,7.006-6.209,14.236-7.579c2.676,0,6.153-1.025,10.881-3.016c4.498-2.108,9.113-5.353,13.671-9.687
	c4.555-4.328,8.545-9.909,11.79-17.031c3.246-6.948,4.954-15.436,4.954-25.573c0-15.38-4.041-27.34-12.246-36.055
	c-8.201-8.657-16.975-13.785-26.201-14.98c-7.122-1.308-12.42-3.59-15.666-6.548c-3.304-3.133-4.955-8.261-4.955-15.604l0-106.29
	H61.021L61.021,374.044z M142.644,278.753v-12.076v-1.025v-1.021v-12.021c0-13.271,5.18-25.746,15.262-37.081
	c10.082-11.332,21.132-17.086,32.924-17.086H326.62v80.31L142.644,278.753L142.644,278.753L142.644,278.753z M944.224,496.395
	c-5.124,1.42-9,4.214-11.333,8.655c-2.108,4.216-3.476,9.114-3.476,14.354c0,5.468,1.313,10.595,3.476,15.548
	c2.333,5.129,6.209,8.66,11.333,10.595c5.241,2.108,9.456,6.097,12.364,12.019c3.016,6.094,4.667,12.361,4.898,19.139
	c0.339,6.663-0.57,13.102-2.452,19.025c-1.994,5.98-4.898,10.365-8.769,13.098c-13.102,8.031-19.594,17.031-19.594,27.055
	c0,10.024,6.436,20.163,19.594,30.02c2.677,2.108,5.01,5.81,7.344,10.989c2.225,5.472,3.364,10.768,3.364,16.236
	c0,5.353-1.195,9.913-3.876,13.896c-2.677,4.102-7.231,6.097-13.781,6.097h-53.086c-3.759,0-5.983-0.343-6.209-1.138
	c-0.343-0.687,0.113-1.769,1.308-3.364c1.313-1.764,2.908-3.59,4.902-5.697c1.99-1.989,3.586-4.328,5.01-7.006
	c3.247-9.339,3.247-17.371,0-24.034c-3.359-6.78-8.769-12.359-16.804-17.031c-5.237-2.677-9.113-6.892-11.221-12.702
	c-2.334-5.58-3.247-11.447-2.903-17.487c0.226-6.093,1.308-11.334,3.359-16.006c1.994-4.785,5.014-8.143,8.774-10.138
	c5.353-1.994,9.226-5.697,11.789-10.994c2.676-5.24,3.985-10.989,3.985-17.031c0-6.036-1.138-11.563-2.903-16.573
	c-1.994-5.01-4.898-8.544-9-10.482c-5.128-2.792-9.226-6.662-12.246-12.132c-2.964-5.125-4.385-11.105-4.385-17.826
	c0-6.779,1.195-13.214,3.872-19.594c2.677-6.378,6.779-11.563,12.702-15.548c4.102-2.677,7.348-6.323,9.913-10.993
	c2.791-4.785,3.986-9.683,4.554-15.036c0.344-5.409-0.913-10.537-3.02-15.548c-2.333-5.07-6.436-9.173-12.358-12.532
	c-6.437-3.303-11.333-8.261-14.241-14.523c-2.902-6.378-4.441-12.988-4.441-19.593c0-6.78,1.539-13.045,4.441-19.138
	c2.908-5.923,7.011-10.708,12.247-14.129c11.107-5.922,17.374-14.183,18.229-24.492c1.025-10.364,0.226-19.994-2.452-28.538
	c-2.108-6.774-5.923-12.759-11.676-18.112c-5.98-5.411-13.554-8.032-22.671-8.032l-472.07,0v-79.229h553.752
	c4.558,0,8.317,1.708,11.563,5.01c3.359,3.363,5.58,7.348,6.549,12.076c1.025,4.671,0.687,9.514-1.026,14.524
	c-1.538,4.958-4.667,9.285-9.339,12.644c-3.989,3.365-7.461,7.58-10.368,12.99c-3.016,5.354-4.442,10.82-5.01,16.573
	c-0.231,5.753,0.682,11.333,2.563,17.087c1.878,5.64,5.468,9.855,10.765,12.531c7.348,3.987,12.702,9.513,16.231,16.462
	c3.646,7.006,5.527,14.01,5.527,20.958c0,7.123-1.882,13.615-5.466,19.593c-3.59,6.094-8.549,10.482-15.154,13.046
	c-7.235,2.791-12.59,6.549-15.778,11.559c-3.359,5.072-5.01,10.595-5.468,16.518c-0.344,6.041,0.913,11.907,3.76,17.545
	c3.02,5.753,7.805,10.712,14.353,14.696c6.548,3.871,11.45,9.226,14.353,16.007c2.907,6.609,4.102,13.27,3.872,20.05
	c-0.34,6.662-1.99,12.815-4.898,18.569C954.479,492.461,950.203,495.708,944.224,496.395L944.224,496.395L944.224,496.395z
	 M816.411,481.355c-7.805,1.994-13.898,5.927-18.23,11.45c-4.215,5.809-6.436,11.563-6.891,17.712
	c-0.227,5.984,1.425,12.021,4.902,18.113c3.759,5.928,9,10.255,16.344,12.934c6.44,2.789,11.45,6.777,14.696,12.014
	c3.359,5.472,5.129,11.108,5.468,17.15c0.343,6.035-0.909,11.789-3.473,17.031c-2.563,5.353-6.552,9.455-11.789,12.016
	c-16.348,8.148-24.948,17.83-25.461,29.163c-0.8,11.337,5.466,20.333,18.569,27.169c5.923,2.677,10.708,6.779,14.236,12.475
	c3.646,5.698,5.584,11.677,5.984,18.113c0.339,6.21-0.913,12.018-3.59,16.917c-2.564,5.241-6.892,8.542-12.702,10.708
	c-7.917,1.994-13.898,5.578-18.339,10.994c-4.102,5.236-6.323,10.987-6.667,16.913c-0.455,6.209,1.195,12.132,4.898,18.117
	c3.59,6.09,9.344,11.103,17.143,15.149c5.358,2.677,9,6.892,11.338,12.476c2.333,5.805,3.133,11.221,2.563,16.573
	c-0.799,5.353-2.563,10.251-5.584,14.466c-2.902,4.439-7.005,6.549-12.358,6.549l-514.336,0V323.865H813.39
	c5.241,0,9.456,2.052,12.472,6.549c2.907,4.331,4.445,9.116,4.902,14.527c0.339,5.41-0.913,10.708-3.59,16.005
	c-2.564,5.298-6.892,9.057-12.702,10.994c-5.923,2.048-10.708,5.41-14.353,10.084c-3.646,4.61-5.697,9.908-6.436,15.491
	c-0.57,5.749,0.794,11.164,3.985,16.574c3.364,5.41,8.887,9.4,16.805,12.016c5.81,2.681,10.708,6.666,14.24,12.076
	c3.528,5.41,5.697,10.825,5.923,16.462c0.344,5.866-1.025,11.107-3.871,16.235C827.857,475.775,823.072,479.365,816.411,481.355
	L816.411,481.355L816.411,481.355z M579.348,548.681c-3.133,0-6.667-0.341-10.369-1.026c-3.532-0.796-4.215-2.792-2.451-6.092
	c0.799-1.196,3.876-5.98,9.455-14.014c5.584-8.144,11.677-16.573,18.682-25.574c6.891-9.113,13.102-17.6,19.255-25.574
	c5.81-8.03,9.451-13.04,10.708-15.149c3.359-5.24,1.308-11.563-5.923-18.967c-1.199-1.369-3.876-3.421-7.917-6.155
	c-3.76-2.62-7.405-4.61-10.652-5.922c-5.353-1.934-9.117-2.334-11.45-0.969c-2.108,1.312-5.01,4.272-8.256,9
	c-1.313,1.938-4.559,6.836-9.913,14.472c-5.184,7.857-10.765,15.948-16.692,24.662c-5.867,8.769-11.333,16.573-16.231,23.465
	c-5.01,7.123-7.747,11.222-8.317,12.646c-1.253,2.564-3.816,3.702-7.462,3.02c-3.59-0.687-5.979-2.337-7.231-5.014
	c-0.8-1.308-3.645-5.24-8.943-11.677c-5.298-6.205-10.937-13.327-16.748-21.471c-5.808-8.149-11.557-15.436-17.142-22.558
	c-5.641-7.061-9.343-11.846-11.39-14.636c-5.926-11.337-12.131-14.98-18.624-10.937c-4.616,2.622-8.775,5.466-12.42,8.43
	c-3.591,3.134-7.006,5.64-10.253,7.691c-6.549,4.555-7.518,10.652-2.964,17.996c11.107,13.328,21.019,25.691,29.562,37.138
	c7.175,9.343,14.011,18.229,20.677,27.169c6.492,8.549,10.421,13.559,11.676,15.041c1.364,2.563,0,3.985-3.933,3.985h-11.676
	c-3.246,0-8.087,0.113-14.237,0.455c-6.323,0.344-12.077,0.23-17.373-0.455c-5.186,0-9.514,1.194-12.816,3.989
	c-3.19,2.564-4.215,5.922-2.85,9.908c0.629,2.795,0.969,6.78,0.969,12.021v12.246c0,3.247,0.912,5.129,2.964,5.468
	c1.995,0.286,4.215,0.4,6.892,0.4h57.071c7.75,0,11.677,1.651,11.677,5.014v19.021c0,3.476-0.57,5.128-1.933,5.128h-4.905h-9.907
	h-19.594h-19.708h-11.79c-3.875-0.683-6.441,0.344-7.804,2.903c-1.253,2.794-2.22,5.81-2.964,9.117
	c-0.685,3.473-0.685,6.548,0,9.451c0.744,3.133,0.912,5.697,0.912,7.579c0,8.77,4.272,13.098,12.816,13.098h59.064
	c3.422,0,5.299,0.455,5.868,1.425c0.629,1.025,1.026,3.246,1.026,6.548c0.686,3.364,0.912,9.344,0.454,18
	c-0.282,8.774-0.513,14.41-0.513,17.203c0,7.346,4.273,10.992,12.76,10.992h31.558c5.236,0,7.912-1.652,7.912-5.124v-6.892v-33.152
	c0-6.775,3.021-10.139,8.774-10.139h8.887c4.554,0,9.794-0.113,15.262-0.569c5.697-0.226,10.994-0.456,16.122-0.456h12.815
	c9.113,0,13.898-3.358,13.898-9.909v-22.159c0-6.096-3.247-9.112-9.795-9.112h-57.188c-6.436,1.421-9.913,0-9.913-3.989
	c0-1.877-0.113-4.441-0.456-7.461c-0.339-3.016-0.395-5.697-0.395-8.487c0-2.565,1.025-4.671,3.359-5.923
	c2.395-1.425,4.84-2.108,7.405-2.108h58.096c6.436,0,9.799-2.221,9.799-7.005v-24.092c0-2.677-1.138-5.241-3.476-7.917
	c-2.333-2.795-5.124-3.989-8.313-3.989h-33.489V548.681L579.348,548.681z"/>
</svg>
