<?xml version="1.0" encoding="utf-8"?>
<!DOCTYPE svg PUBLIC "-//W3C//DTD SVG 1.1//EN" "http://www.w3.org/Graphics/SVG/1.1/DTD/svg11.dtd">
<svg version="1.1" id="图形" xmlns="http://www.w3.org/2000/svg" xmlns:xlink="http://www.w3.org/1999/xlink" x="0px" y="0px" width="1024px" height="1024px" viewBox="0 0 1024 1024" enable-background="new 0 0 1024 1024" xml:space="preserve">
  <path fill="#272636" d="M511.573333 811.146667c-278.506667 0-505.024-222.592-511.424-499.562667C6.058667 553.269333 189.824 747.189333 415.658667 747.189333c229.546667 0 415.658667-200.426667 415.658667-447.616 0-52.970667 42.944-95.936 95.914667-95.936 52.949333 0 95.914667 42.965333 95.914667 95.936C1023.146667 582.112 794.112 811.146667 511.573333 811.146667zM511.573333-212c278.506667 0 505.024 222.592 511.402667 499.562667-5.888-241.664-189.653333-435.626667-415.488-435.626667-229.546667 0-415.658667 200.448-415.658667 447.637333 0 52.949333-42.965333 95.914667-95.936 95.914667C42.965333 395.488 0 352.544 0 299.573333 0 17.034667 229.034667-212 511.573333-212z" transform="translate(0, 812) scale(1, -1)"/>
</svg>
