<?xml version="1.0" encoding="utf-8"?>
<!DOCTYPE svg PUBLIC "-//W3C//DTD SVG 1.1//EN" "http://www.w3.org/Graphics/SVG/1.1/DTD/svg11.dtd">
<svg version="1.1" id="图形" xmlns="http://www.w3.org/2000/svg" xmlns:xlink="http://www.w3.org/1999/xlink" x="0px" y="0px" width="1024px" height="1024px" viewBox="0 0 1024 1024" enable-background="new 0 0 1024 1024" xml:space="preserve">
  <path fill="#272636" d="M413.088 482.08l-94.624-96.288c49.28-109.408 153.792-231.264 275.04-272.192l81.824 81.568c0 0 193.984-33.856 237.568-55.04 37.792-18.336 50.272-58.944 44.352-109.088-6.368-53.856-76.896-172.608-204.064-173.92-127.168-1.312-314.4 94.496-448.544 235.84C170.496 234.304 50.88 413.472 70.016 565.6c19.136 152.16 151.68 179.36 184.832 181.792 33.536 2.464 60.128-7.36 80.352-32.416C361.216 682.72 413.088 482.08 413.088 482.08L413.088 482.08zM305.632 683.52C289.856 704.16 262.752 707.616 235.648 701.216 211.584 695.552 123.84 659.168 111.424 561.696c-13.792-108.416 67.04-291.84 212.128-432.192 145.088-140.352 284.864-222.272 404.992-232.064 120.16-9.792 178.752 95.968 187.296 127.744 8.544 31.776 1.472 63.872-15.776 76.64-21.984 16.288-210.976 50.112-210.976 50.112l-85.76-84.512c-140.992 45.856-273.728 174.272-330.24 331.168l93.664 94.336C366.752 492.896 321.408 662.912 305.632 683.52L305.632 683.52zM305.632 683.52" transform="translate(0, 812) scale(1, -1)"/>
</svg>
