<?xml version="1.0" encoding="utf-8"?>
<!DOCTYPE svg PUBLIC "-//W3C//DTD SVG 1.1//EN" "http://www.w3.org/Graphics/SVG/1.1/DTD/svg11.dtd">
<svg version="1.1" id="图形" xmlns="http://www.w3.org/2000/svg" xmlns:xlink="http://www.w3.org/1999/xlink" x="0px" y="0px" width="1024px" height="1024px" viewBox="0 0 1024 1024" enable-background="new 0 0 1024 1024" xml:space="preserve">
  <path fill="#272636" d="M890.944-108.512c0-11.072-8.96-20.032-20.032-20.032L106.496-128.544c-5.504 0-10.88 2.304-14.656 6.4-3.84 4.032-5.76 9.344-5.44 14.912 3.328 54.656 25.024 97.536 66.624 131.008 34.688 27.968 78.528 45.184 117.184 60.416 47.232 18.56 88.192 34.56 100.544 62.912 1.92 22.912 1.792 40.704 1.6 61.056 0 3.072 0 6.208-0.064 9.408C353.728 236.064 334.784 275.296 327.808 310.112 321.28 313.44 315.2 318.496 310.144 325.088 300.032 337.76 293.632 356.128 290.752 379.616 288.064 402.08 294.784 419.104 303.936 430.24 279.296 532.32 286.592 610.08 325.376 661.216 358.208 704.48 412.416 727.136 486.4 728.416c0.192 0.064 0.256 0.064 0.384 0.064 48.512 0 84.992-13.12 104-37.184 34.368-6.72 60.48-24.32 77.888-52.16 18.56-29.952 25.984-71.04 21.888-121.984-2.88-36.352-10.88-68.544-16.512-87.616 8.768-11.136 15.232-28.032 12.608-49.984-2.88-23.488-9.408-41.856-19.392-54.592-5.12-6.592-11.136-11.648-17.664-14.912-4.544-23.488-13.44-44.096-18.88-55.296C624.768 242.4 616.128 227.488 606.144 217.504c0-3.264-0.064-6.4-0.064-9.472-0.192-20.352-0.32-38.144 1.536-60.864 12.352-28.352 53.12-44.352 100.096-62.912 49.088-19.392 104.576-41.344 141.76-84.48 7.232-8.448 6.336-21.056-2.112-28.288-8.384-7.232-21.12-6.272-28.352 2.112-30.656 35.648-79.104 54.72-126.016 73.28-54.848 21.696-106.624 42.112-124.032 88.704-0.576 1.6-1.024 3.456-1.088 5.184-2.432 26.176-2.24 46.4-2.048 67.712 0 6.08 0.128 12.288 0.128 18.752 0 7.36 4.032 14.144 10.496 17.664C583.872 250.08 607.488 289.376 611.52 327.648 612.48 337.12 620.224 344.608 629.888 345.44c2.496 0.192 12.992 7.424 16.768 39.04 1.984 16.256-6.016 21.888-6.08 22.016C632.64 411.36 629.056 421.152 632 429.984c15.424 46.464 33.28 138.304 2.368 188.032C622.144 637.92 603.008 649.312 576.192 653.024 569.92 653.92 564.544 657.696 561.408 663.008c-8.96 15.744-36.8 25.216-74.496 25.216C425.984 687.136 382.4 669.856 357.376 637.024 340.864 615.2 331.648 585.632 330.176 549.216c-1.536-34.304 3.712-74.88 15.552-120.512 2.24-8.576-1.408-17.536-8.96-22.208 0-0.128-8-5.76-5.952-22.016C334.528 352.864 344.896 345.632 347.52 345.44c9.6-0.832 17.28-8.32 18.368-17.792C369.92 289.504 394.24 250.208 401.92 244.768 408.32 241.184 412.416 234.464 412.416 227.04c0-6.464 0.064-12.544 0.064-18.432 0.192-21.504 0.384-41.664-2.048-67.968-0.064-1.728-0.512-3.584-1.088-5.184-17.344-46.592-69.312-67.008-124.416-88.704-37.76-14.848-76.8-30.208-106.688-54.336-27.008-21.824-42.944-47.808-49.152-80.704l741.76 0C881.984-88.224 890.944-97.376 890.944-108.512L890.944-108.512zM890.944-108.512" transform="translate(0, 812) scale(1, -1)"/>
</svg>
