<?xml version="1.0" encoding="utf-8"?>
<!DOCTYPE svg PUBLIC "-//W3C//DTD SVG 1.1//EN" "http://www.w3.org/Graphics/SVG/1.1/DTD/svg11.dtd">
<svg version="1.1" id="图形" xmlns="http://www.w3.org/2000/svg" xmlns:xlink="http://www.w3.org/1999/xlink" x="0px" y="0px" width="1024px" height="1024px" viewBox="0 0 1024 1024" enable-background="new 0 0 1024 1024" xml:space="preserve">
  <path fill="#272636" d="M512 524c-53 0-96-43-96-96s43-96 96-96 96 43 96 96S565 524 512 524zM512 364c-35.2 0-64 28.8-64 64s28.8 64 64 64 64-28.8 64-64S547.2 364 512 364zM512 747.2c-176.8 0-320-143.2-320-320 0-68 23.2-129.8 57.6-182.8C318.8 138 512-147.2 512-147.2S705.2 138 774.4 244.2c34.4 53 57.6 114.8 57.6 182.8C832 603.8 688.8 747.2 512 747.2zM747.6 261.8C694.6 180.4 567.4-8.2 512-90c-55.4 82-182.6 270.4-235.6 351.8-34.8 53.6-52.4 109.2-52.4 165.4 0 77 30 149.2 84.4 203.6 54.4 54.4 126.8 84.4 203.6 84.4 77 0 149.2-30 203.6-84.4C770 576.4 800 504 800 427.2 800 370.8 782.4 315.2 747.6 261.8z" transform="translate(0, 812) scale(1, -1)"/>
</svg>
